{"title":"Nautanki Saala 2013 BRRip 480p x264 Hindi ESubs - ViZNU [P2PDL]","uid":8593779,"size":428160450,"categoryP":"video","categoryS":"movies","magnet":"?xt=urn:btih:34db25a9090c25c58a224904c61bf064094a8ad7&amp;dn=Nautanki+Saala+2013+BRRip+480p+x264+Hindi+ESubs+-+ViZNU+%5BP2PDL%5D&amp;tr=udp%3A%2F%2Ftracker.openbittorrent.com%3A80&amp;tr=udp%3A%2F%2Fopen.demonii.com%3A1337&amp;tr=udp%3A%2F%2Ftracker.coppersurfer.tk%3A6969&amp;tr=udp%3A%2F%2Fexodus.desync.com%3A6969","seeders":1,"leechers":0,"uploader":"ValidusVyto","files":-1,"time":1371698709,"description":"_______ Visit us at our Semi Public Bittorrent Community ________\n  &lt;a href=&quot;\nhttp://p2pdl.com&quot; rel=&quot;nofollow&quot; target=&quot;_NEW&quot;&gt;\nhttp://p2pdl.com&lt;/a&gt;  _____________________________ &lt;a href=&quot; http://p2pdl.com&quot; rel=&quot;nofollow&quot; target=&quot;_NEW&quot;&gt; http://p2pdl.com&lt;/a&gt;\n\n\n\nNautanki Saala 2013 BRRip 480p x264 Hindi ESubs - ViZNU [P2PDL]\n\n\nGenre: Comedy\nPlot: An actor's life changes dramatically when he saves a stranger from suicide.   \nDirector: Rohan Sippy\nStars: Ayushmann Khurrana, Kunaal Roy Kapur, Pooja Salvi.\nRated: U/A\n\n\nInfo: &lt;a href=&quot;\nhttp://www.imdb.com/title/tt2341766/&quot; rel=&quot;nofollow&quot; target=&quot;_NEW&quot;&gt;\nhttp://www.imdb.com/title/tt2341766/&lt;/a&gt;\n\nFormat                         : MPEG-4\nFile size                      : 402 MiB\nDuration                       : 2h 4mn\nOverall bit rate               : 450 Kbps\nSource                         : 720p.Bluray.DDR\n\nVideo\nFormat                         : AVC\nBit rate                       : 407 Kbps\nWidth                          : 720 pixels\nHeight                         : 304 pixels\nDisplay aspect ratio           : 2.35:1\nFrame rate mode                : Constant\nFrame rate                     : 24.000 fps\nStream size                    : 364 MiB (90%)\nWriting library                : x264 core 130\n\nAudio\nFormat                         : AAC\nBit rate mode                  : Variable\nBit rate                       : 40.0 Kbps\nChannel(s)                     : 2 channels\nChannel positions              : Front: L R\nSampling rate                  : 48.0 KHz\nStream size                    : 35.8 MiB (9%)\nLanguage                       : Hindi\n\nSubtitle                       : Yes(English)\n &lt;a href=&quot;\nhttp://ultraimg.com/images/izfc.png&quot; rel=&quot;nofollow&quot; target=&quot;_NEW&quot;&gt;\nhttp://ultraimg.com/images/izfc.png&lt;/a&gt; &lt;a href=&quot;\nhttp://ultraimg.com/images/dzLVk.png&quot; rel=&quot;nofollow&quot; target=&quot;_NEW&quot;&gt;\nhttp://ultraimg.com/images/dzLVk.png&lt;/a&gt; &lt;a href=&quot;\nhttp://ultraimg.com/images/wyHS6.png&quot; rel=&quot;nofollow&quot; target=&quot;_NEW&quot;&gt;\nhttp://ultraimg.com/images/wyHS6.png&lt;/a&gt; &lt;a href=&quot;\nhttp://ultraimg.com/images/tN5dY.png&quot; rel=&quot;nofollow&quot; target=&quot;_NEW&quot;&gt;\nhttp://ultraimg.com/images/tN5dY.png&lt;/a&gt; &lt;a href=&quot;\nhttp://ultraimg.com/images/EQ7dv.png&quot; rel=&quot;nofollow&quot; target=&quot;_NEW&quot;&gt;\nhttp://ultraimg.com/images/EQ7dv.png&lt;/a&gt; &lt;a href=&quot;\nhttp://ultraimg.com/images/ofGOw.png&quot; rel=&quot;nofollow&quot; target=&quot;_NEW&quot;&gt;\nhttp://ultraimg.com/images/ofGOw.png&lt;/a&gt; &lt;a href=&quot;\nhttp://ultraimg.com/images/7VIYR.png&quot; rel=&quot;nofollow&quot; target=&quot;_NEW&quot;&gt;\nhttp://ultraimg.com/images/7VIYR.png&lt;/a&gt; &lt;a href=&quot;\nhttp://ultraimg.com/images/qgHSQ.png&quot; rel=&quot;nofollow&quot; target=&quot;_NEW&quot;&gt;\nhttp://ultraimg.com/images/qgHSQ.png&lt;/a&gt;\n\n----------------------------------------------------------------------------------------------------\n\n\nEncoded using revolutionary 10bit encoding, which enables us to provide you more crispier \nand sharper images at small sizes, just make sure you follow our instructions without a fault.\nRecommend to you to use latest version of VLC player. Install K-Lite Codec Pack or shark007 codecs\nin case of any kind of problem in playback (For non-VLC Media Player users). Alternatively, install\nCore AVC codecs, the fastest decoder that there is coupled with Community Center Codec Pack and play\non Windows Media Player Classic. Check sample to be sure.\nEnjoy!\n\nEncoder Notes:Looking For Early Access To Anything You Can Provide DVDScr, R5, DVDR, BluRay, Direct\nAudio, Music Releases and Seedboxes. We require dedicated servers, so as to do more \nand fast releases of movies.\nIf You Got anything to offer please contact us at &quot;&lt;a class=&quot;__cf_email__&quot; href=&quot;/cdn-cgi/l/email-protection&quot; data-cfemail=&quot;2b4844455f4a485f6b5b195b4f4705484446&quot;&gt;[email&amp;#160;protected]&lt;/a&gt;&lt;script cf-hash='f9e31' type=&quot;text/javascript&quot;&gt;\n/* &lt;![CDATA[ */!function(){try{var t=&quot;currentScript&quot;in document?document.currentScript:function(){for(var t=document.getElementsByTagName(&quot;script&quot;),e=t.length;e--;)if(t[e].getAttribute(&quot;cf-hash&quot;))return t[e]}();if(t&amp;&amp;t.previousSibling){var e,r,n,i,c=t.previousSibling,a=c.getAttribute(&quot;data-cfemail&quot;);if(a){for(e=&quot;&quot;,r=parseInt(a.substr(0,2),16),n=2;a.length-n;n+=2)i=parseInt(a.substr(n,2),16)^r,e+=String.fromCharCode(i);e=document.createTextNode(e),c.parentNode.replaceChild(e,c)}}}catch(u){}}();/* ]]&gt; */&lt;/script&gt;&quot;.\n\nFace book Fan Page:   &lt;a href=&quot;\nhttp://fbl.me/BC&quot; rel=&quot;nofollow&quot; target=&quot;_NEW&quot;&gt;\nhttp://fbl.me/BC&lt;/a&gt;","torrent":{"xt":"urn:btih:34db25a9090c25c58a224904c61bf064094a8ad7","amp;dn":"Nautanki+Saala+2013+BRRip+480p+x264+Hindi+ESubs+-+ViZNU+%5BP2PDL%5D","amp;tr":["udp%3A%2F%2Ftracker.openbittorrent.com%3A80","udp%3A%2F%2Fopen.demonii.com%3A1337","udp%3A%2F%2Ftracker.coppersurfer.tk%3A6969","udp%3A%2F%2Fexodus.desync.com%3A6969"],"infoHash":"34db25a9090c25c58a224904c61bf064094a8ad7","infoHashBuffer":{"type":"Buffer","data":[52,219,37,169,9,12,37,197,138,34,73,4,198,27,240,100,9,74,138,215]},"announce":[],"urlList":[]}}